<svg xmlns="http://www.w3.org/2000/svg" viewBox="0 0 500 400">
  <defs>
    <linearGradient id="bg3" x1="0%" y1="0%" x2="0%" y2="100%">
      <stop offset="0%" style="stop-color:#fafafa"/>
      <stop offset="100%" style="stop-color:#f0f0f0"/>
    </linearGradient>
  </defs>
  <rect width="500" height="400" fill="url(#bg3)"/>

  <!-- DRAFT watermark -->
  <text x="250" y="220" text-anchor="middle" font-family="system-ui" font-size="70" font-weight="bold" fill="#e0e0e0" transform="rotate(-25 250 200)">DRAFT</text>

  <text x="250" y="35" text-anchor="middle" font-family="system-ui" font-size="18" font-weight="bold" fill="#666">Marketing ROI Analysis</text>
  <text x="250" y="55" text-anchor="middle" font-family="system-ui" font-size="11" fill="#999">Initial version — scatter only, no trend line</text>

  <!-- Grid lines -->
  <g stroke="#e5e5e5" stroke-width="1">
    <line x1="60" y1="320" x2="460" y2="320"/>
    <line x1="60" y1="260" x2="460" y2="260"/>
    <line x1="60" y1="200" x2="460" y2="200"/>
    <line x1="60" y1="140" x2="460" y2="140"/>
    <line x1="60" y1="80" x2="460" y2="80"/>
  </g>

  <!-- Y-axis labels -->
  <g font-family="system-ui" font-size="11" fill="#999" text-anchor="end">
    <text x="55" y="324">0</text>
    <text x="55" y="264">25</text>
    <text x="55" y="204">50</text>
    <text x="55" y="144">75</text>
    <text x="55" y="84">100</text>
  </g>

  <!-- X-axis labels -->
  <g font-family="system-ui" font-size="11" fill="#999" text-anchor="middle">
    <text x="60" y="340">$0K</text>
    <text x="160" y="340">$25K</text>
    <text x="260" y="340">$50K</text>
    <text x="360" y="340">$75K</text>
    <text x="460" y="340">$100K</text>
  </g>

  <!-- Scatter points only (muted, no trend line) -->
  <g fill="#bbb" fill-opacity="0.6" stroke="#999" stroke-width="1">
    <circle cx="85" cy="285" r="5"/><circle cx="102" cy="275" r="5"/><circle cx="125" cy="260" r="5"/>
    <circle cx="148" cy="250" r="5"/><circle cx="165" cy="235" r="5"/><circle cx="180" cy="245" r="5"/>
    <circle cx="195" cy="220" r="5"/><circle cx="215" cy="215" r="5"/><circle cx="230" cy="200" r="5"/>
    <circle cx="250" cy="195" r="5"/><circle cx="268" cy="185" r="5"/><circle cx="285" cy="175" r="5"/>
    <circle cx="305" cy="165" r="5"/><circle cx="320" cy="170" r="5"/><circle cx="340" cy="155" r="5"/>
    <circle cx="355" cy="145" r="5"/><circle cx="375" cy="140" r="5"/><circle cx="390" cy="130" r="5"/>
    <circle cx="410" cy="125" r="5"/><circle cx="430" cy="115" r="5"/><circle cx="445" cy="108" r="5"/>
  </g>

  <!-- Placeholder for trend line (dashed gray) -->
  <line x1="60" y1="300" x2="460" y2="100" stroke="#ccc" stroke-width="1" stroke-dasharray="8,8"/>
  <text x="380" y="90" font-family="system-ui" font-size="10" fill="#aaa" font-style="italic">trend line TBD</text>

  <!-- Axis labels -->
  <text x="260" y="370" text-anchor="middle" font-family="system-ui" font-size="12" fill="#999">Marketing Spend ($K)</text>
  <text x="20" y="200" text-anchor="middle" font-family="system-ui" font-size="12" fill="#999" transform="rotate(-90,20,200)">New Customers</text>

  <!-- Draft badge -->
  <rect x="10" y="10" width="60" height="24" fill="#ff9800" rx="4"/>
  <text x="40" y="27" text-anchor="middle" font-family="system-ui" font-size="11" font-weight="bold" fill="white">DRAFT</text>
</svg>
