<svg xmlns="http://www.w3.org/2000/svg" viewBox="0 0 600 400">
  <defs>
    <linearGradient id="bg" x1="0%" y1="0%" x2="0%" y2="100%">
      <stop offset="0%" style="stop-color:#f8f9fa"/>
      <stop offset="100%" style="stop-color:#e9ecef"/>
    </linearGradient>
  </defs>
  <rect width="600" height="400" fill="url(#bg)"/>
  <text x="300" y="35" text-anchor="middle" font-family="system-ui" font-size="18" font-weight="bold" fill="#333">Monthly Revenue Trends</text>

  <!-- Grid lines -->
  <g stroke="#dee2e6" stroke-width="1">
    <line x1="60" y1="320" x2="580" y2="320"/>
    <line x1="60" y1="260" x2="580" y2="260"/>
    <line x1="60" y1="200" x2="580" y2="200"/>
    <line x1="60" y1="140" x2="580" y2="140"/>
    <line x1="60" y1="80" x2="580" y2="80"/>
  </g>

  <!-- Y-axis labels -->
  <g font-family="system-ui" font-size="11" fill="#666" text-anchor="end">
    <text x="55" y="324">$0K</text>
    <text x="55" y="264">$50K</text>
    <text x="55" y="204">$100K</text>
    <text x="55" y="144">$150K</text>
    <text x="55" y="84">$200K</text>
  </g>

  <!-- X-axis labels -->
  <g font-family="system-ui" font-size="10" fill="#666" text-anchor="middle">
    <text x="100" y="340">Jan</text>
    <text x="145" y="340">Feb</text>
    <text x="190" y="340">Mar</text>
    <text x="235" y="340">Apr</text>
    <text x="280" y="340">May</text>
    <text x="325" y="340">Jun</text>
    <text x="370" y="340">Jul</text>
    <text x="415" y="340">Aug</text>
    <text x="460" y="340">Sep</text>
    <text x="505" y="340">Oct</text>
    <text x="550" y="340">Nov</text>
  </g>

  <!-- 2024 line (blue) -->
  <polyline fill="none" stroke="#3498db" stroke-width="3" stroke-linecap="round" stroke-linejoin="round"
    points="100,280 145,260 190,240 235,220 280,200 325,190 370,175 415,160 460,150 505,140 550,125"/>
  <g fill="#3498db">
    <circle cx="100" cy="280" r="5"/><circle cx="145" cy="260" r="5"/><circle cx="190" cy="240" r="5"/>
    <circle cx="235" cy="220" r="5"/><circle cx="280" cy="200" r="5"/><circle cx="325" cy="190" r="5"/>
    <circle cx="370" cy="175" r="5"/><circle cx="415" cy="160" r="5"/><circle cx="460" cy="150" r="5"/>
    <circle cx="505" cy="140" r="5"/><circle cx="550" cy="125" r="5"/>
  </g>

  <!-- 2025 line (green) -->
  <polyline fill="none" stroke="#2ecc71" stroke-width="3" stroke-linecap="round" stroke-linejoin="round"
    points="100,260 145,235 190,210 235,185 280,165 325,145 370,130 415,115 460,100 505,90 550,80"/>
  <g fill="#2ecc71">
    <circle cx="100" cy="260" r="5"/><circle cx="145" cy="235" r="5"/><circle cx="190" cy="210" r="5"/>
    <circle cx="235" cy="185" r="5"/><circle cx="280" cy="165" r="5"/><circle cx="325" cy="145" r="5"/>
    <circle cx="370" cy="130" r="5"/><circle cx="415" cy="115" r="5"/><circle cx="460" cy="100" r="5"/>
    <circle cx="505" cy="90" r="5"/><circle cx="550" cy="80" r="5"/>
  </g>

  <!-- Legend -->
  <rect x="480" y="55" width="100" height="50" fill="white" stroke="#dee2e6" rx="4"/>
  <line x1="490" y1="72" x2="520" y2="72" stroke="#3498db" stroke-width="3"/>
  <circle cx="505" cy="72" r="4" fill="#3498db"/>
  <text x="528" y="76" font-family="system-ui" font-size="12" fill="#333">2024</text>
  <line x1="490" y1="92" x2="520" y2="92" stroke="#2ecc71" stroke-width="3"/>
  <circle cx="505" cy="92" r="4" fill="#2ecc71"/>
  <text x="528" y="96" font-family="system-ui" font-size="12" fill="#333">2025</text>

  <!-- Axis labels -->
  <text x="320" y="370" text-anchor="middle" font-family="system-ui" font-size="12" fill="#666">Month</text>
  <text x="20" y="200" text-anchor="middle" font-family="system-ui" font-size="12" fill="#666" transform="rotate(-90,20,200)">Revenue</text>
</svg>
