<svg xmlns="http://www.w3.org/2000/svg" viewBox="0 0 600 400">
  <defs>
    <linearGradient id="bg" x1="0%" y1="0%" x2="0%" y2="100%">
      <stop offset="0%" style="stop-color:#fafafa"/>
      <stop offset="100%" style="stop-color:#f0f0f0"/>
    </linearGradient>
  </defs>
  <rect width="600" height="400" fill="url(#bg)"/>

  <!-- DRAFT watermark -->
  <text x="300" y="220" text-anchor="middle" font-family="system-ui" font-size="80" font-weight="bold" fill="#e0e0e0" transform="rotate(-25 300 200)">DRAFT</text>

  <text x="300" y="35" text-anchor="middle" font-family="system-ui" font-size="18" font-weight="bold" fill="#666">Monthly Revenue Trends</text>
  <text x="300" y="55" text-anchor="middle" font-family="system-ui" font-size="11" fill="#999">Initial version — 2024 data only</text>

  <!-- Grid lines -->
  <g stroke="#e5e5e5" stroke-width="1">
    <line x1="60" y1="320" x2="580" y2="320"/>
    <line x1="60" y1="260" x2="580" y2="260"/>
    <line x1="60" y1="200" x2="580" y2="200"/>
    <line x1="60" y1="140" x2="580" y2="140"/>
    <line x1="60" y1="80" x2="580" y2="80"/>
  </g>

  <!-- Y-axis labels -->
  <g font-family="system-ui" font-size="11" fill="#999" text-anchor="end">
    <text x="55" y="324">$0K</text>
    <text x="55" y="264">$50K</text>
    <text x="55" y="204">$100K</text>
    <text x="55" y="144">$150K</text>
    <text x="55" y="84">$200K</text>
  </g>

  <!-- X-axis labels -->
  <g font-family="system-ui" font-size="10" fill="#999" text-anchor="middle">
    <text x="100" y="340">Jan</text>
    <text x="145" y="340">Feb</text>
    <text x="190" y="340">Mar</text>
    <text x="235" y="340">Apr</text>
    <text x="280" y="340">May</text>
    <text x="325" y="340">Jun</text>
    <text x="370" y="340">Jul</text>
    <text x="415" y="340">Aug</text>
    <text x="460" y="340">Sep</text>
    <text x="505" y="340">Oct</text>
    <text x="550" y="340">Nov</text>
  </g>

  <!-- 2024 line only (muted blue) -->
  <polyline fill="none" stroke="#7eb8da" stroke-width="2" stroke-linecap="round" stroke-linejoin="round" stroke-dasharray="8,4"
    points="100,280 145,260 190,240 235,220 280,200 325,190 370,175 415,160 460,150 505,140 550,125"/>
  <g fill="#7eb8da">
    <circle cx="100" cy="280" r="4"/><circle cx="145" cy="260" r="4"/><circle cx="190" cy="240" r="4"/>
    <circle cx="235" cy="220" r="4"/><circle cx="280" cy="200" r="4"/><circle cx="325" cy="190" r="4"/>
    <circle cx="370" cy="175" r="4"/><circle cx="415" cy="160" r="4"/><circle cx="460" cy="150" r="4"/>
    <circle cx="505" cy="140" r="4"/><circle cx="550" cy="125" r="4"/>
  </g>

  <!-- Legend -->
  <rect x="500" y="55" width="80" height="35" fill="white" stroke="#ddd" rx="4"/>
  <line x1="510" y1="72" x2="540" y2="72" stroke="#7eb8da" stroke-width="2" stroke-dasharray="6,3"/>
  <circle cx="525" cy="72" r="3" fill="#7eb8da"/>
  <text x="548" y="76" font-family="system-ui" font-size="12" fill="#999">2024</text>

  <!-- Axis labels -->
  <text x="320" y="370" text-anchor="middle" font-family="system-ui" font-size="12" fill="#999">Month</text>

  <!-- Draft badge -->
  <rect x="10" y="10" width="60" height="24" fill="#ff9800" rx="4"/>
  <text x="40" y="27" text-anchor="middle" font-family="system-ui" font-size="11" font-weight="bold" fill="white">DRAFT</text>
</svg>
